{
	"asset":{
		"generator":"Khronos glTF Blender I/O v4.1.62",
		"version":"2.0"
	},
	"extensionsUsed":[
		"KHR_materials_transmission",
		"KHR_materials_volume",
		"KHR_materials_ior"
	],
	"scene":0,
	"scenes":[
		{
			"name":"Scene",
			"nodes":[
				0,
				1
			]
		}
	],
	"nodes":[
		{
			"mesh":0,
			"name":"Stood",
			"rotation":[
				0.11248331516981125,
				-0.051938246935606,
				0.007894612848758698,
				0.9922638535499573
			],
			"scale":[
				0.11677074432373047,
				0.11677109450101852,
				0.061599064618349075
			],
			"translation":[
				-0.052842576056718826,
				1.0353906154632568,
				0.12969383597373962
			]
		},
		{
			"mesh":1,
			"name":"Logo-22",
			"rotation":[
				0,
				-0.7071068286895752,
				0.7071068286895752,
				3.090862321641907e-08
			],
			"scale":[
				2.708686113357544,
				2.708686113357544,
				2.708686113357544
			],
			"translation":[
				-0.052842576056718826,
				1.4096612930297852,
				-0.17362713813781738
			]
		}
	],
	"materials":[
		{
			"doubleSided":false,
			"extensions":{
				"KHR_materials_transmission":{
					"transmissionFactor":1
				},
				"KHR_materials_volume":{
					"attenuationColor":[
						0.04390158876776695,
						0.986642062664032,
						0.5435579419136047
					],
					"attenuationDistance":0.2982892353837845,
					"thicknessFactor":0.9999867677688599
				},
				"KHR_materials_ior":{
					"ior":5
				}
			},
			"name":"StoodCrystal",
			"pbrMetallicRoughness":{
				"baseColorFactor":[
					0.061244554817676544,
					1,
					0.5149178504943848,
					1
				]
			}
		},
		{
			"doubleSided":true,
			"name":"StoodHeartMetal",
			"pbrMetallicRoughness":{}
		},
		{
			"doubleSided":true,
			"name":"StoodDecorCrystal",
			"pbrMetallicRoughness":{}
		},
		{
			"doubleSided":true,
			"name":"StoodRibbon",
			"pbrMetallicRoughness":{}
		},
		{
			"doubleSided":true,
			"name":"StoodDecorSwing",
			"pbrMetallicRoughness":{}
		},
		{
			"doubleSided":true,
			"name":"StoodDecorHeart",
			"pbrMetallicRoughness":{}
		},
		{
			"doubleSided":true,
			"name":"Stood",
			"pbrMetallicRoughness":{}
		},
		{
			"doubleSided":true,
			"name":"StoodDecorRadial",
			"pbrMetallicRoughness":{}
		},
		{
			"doubleSided":true,
			"name":"WandMetal",
			"pbrMetallicRoughness":{}
		},
		{
			"alphaMode":"BLEND",
			"doubleSided":true,
			"name":"Logo-22",
			"pbrMetallicRoughness":{
				"baseColorTexture":{
					"index":0
				},
				"metallicFactor":0,
				"roughnessFactor":0.5
			}
		}
	],
	"meshes":[
		{
			"name":"Body.003",
			"primitives":[
				{
					"attributes":{
						"POSITION":0,
						"NORMAL":1,
						"TEXCOORD_0":2,
						"COLOR_0":3
					},
					"indices":4,
					"material":0
				},
				{
					"attributes":{
						"POSITION":5,
						"NORMAL":6,
						"TEXCOORD_0":7,
						"COLOR_0":8
					},
					"indices":9,
					"material":1
				},
				{
					"attributes":{
						"POSITION":10,
						"NORMAL":11,
						"TEXCOORD_0":12,
						"COLOR_0":13
					},
					"indices":14,
					"material":2
				},
				{
					"attributes":{
						"POSITION":15,
						"NORMAL":16,
						"TEXCOORD_0":17,
						"COLOR_0":18
					},
					"indices":19,
					"material":3
				},
				{
					"attributes":{
						"POSITION":20,
						"NORMAL":21,
						"TEXCOORD_0":22,
						"COLOR_0":23
					},
					"indices":24,
					"material":4
				},
				{
					"attributes":{
						"POSITION":25,
						"NORMAL":26,
						"TEXCOORD_0":27,
						"COLOR_0":28
					},
					"indices":29,
					"material":5
				},
				{
					"attributes":{
						"POSITION":30,
						"NORMAL":31,
						"TEXCOORD_0":32,
						"COLOR_0":33
					},
					"indices":34,
					"material":6
				},
				{
					"attributes":{
						"POSITION":35,
						"NORMAL":36,
						"TEXCOORD_0":37,
						"COLOR_0":38
					},
					"indices":39,
					"material":7
				},
				{
					"attributes":{
						"POSITION":40,
						"NORMAL":41,
						"TEXCOORD_0":42,
						"COLOR_0":43
					},
					"indices":44,
					"material":8
				}
			]
		},
		{
			"name":"Logo-22",
			"primitives":[
				{
					"attributes":{
						"POSITION":45,
						"NORMAL":46,
						"TEXCOORD_0":47
					},
					"indices":48,
					"material":9
				}
			]
		}
	],
	"textures":[
		{
			"sampler":0,
			"source":0
		}
	],
	"images":[
		{
			"mimeType":"image/png",
			"name":"Logo-22",
			"uri":"textures/Logo-22.png"
		}
	],
	"accessors":[
		{
			"bufferView":0,
			"componentType":5126,
			"count":874,
			"max":[
				0.9183369874954224,
				-5.293770790100098,
				11.405750274658203
			],
			"min":[
				-0.09867462515830994,
				-6.98272705078125,
				10.038703918457031
			],
			"type":"VEC3"
		},
		{
			"bufferView":1,
			"componentType":5126,
			"count":874,
			"type":"VEC3"
		},
		{
			"bufferView":2,
			"componentType":5126,
			"count":874,
			"type":"VEC2"
		},
		{
			"bufferView":3,
			"componentType":5126,
			"count":874,
			"type":"VEC3"
		},
		{
			"bufferView":4,
			"componentType":5123,
			"count":4608,
			"type":"SCALAR"
		},
		{
			"bufferView":5,
			"componentType":5126,
			"count":1440,
			"max":[
				0.8182429075241089,
				-6.935618877410889,
				11.309659957885742
			],
			"min":[
				-0.047088623046875,
				-7.7711052894592285,
				10.57962703704834
			],
			"type":"VEC3"
		},
		{
			"bufferView":6,
			"componentType":5126,
			"count":1440,
			"type":"VEC3"
		},
		{
			"bufferView":7,
			"componentType":5126,
			"count":1440,
			"type":"VEC2"
		},
		{
			"bufferView":8,
			"componentType":5126,
			"count":1440,
			"type":"VEC3"
		},
		{
			"bufferView":9,
			"componentType":5123,
			"count":8100,
			"type":"SCALAR"
		},
		{
			"bufferView":10,
			"componentType":5126,
			"count":5570,
			"max":[
				1.8994367122650146,
				-4.518646240234375,
				11.495513916015625
			],
			"min":[
				-1.0985922813415527,
				-7.519185543060303,
				9.455484390258789
			],
			"type":"VEC3"
		},
		{
			"bufferView":11,
			"componentType":5126,
			"count":5570,
			"type":"VEC3"
		},
		{
			"bufferView":12,
			"componentType":5126,
			"count":5570,
			"type":"VEC2"
		},
		{
			"bufferView":13,
			"componentType":5126,
			"count":5570,
			"type":"VEC3"
		},
		{
			"bufferView":14,
			"componentType":5123,
			"count":31140,
			"type":"SCALAR"
		},
		{
			"bufferView":15,
			"componentType":5126,
			"count":7900,
			"max":[
				2.8479952812194824,
				-5.079822063446045,
				11.38155746459961
			],
			"min":[
				-2.0868945121765137,
				-6.476858615875244,
				9.217047691345215
			],
			"type":"VEC3"
		},
		{
			"bufferView":16,
			"componentType":5126,
			"count":7900,
			"type":"VEC3"
		},
		{
			"bufferView":17,
			"componentType":5126,
			"count":7900,
			"type":"VEC2"
		},
		{
			"bufferView":18,
			"componentType":5126,
			"count":7900,
			"type":"VEC3"
		},
		{
			"bufferView":19,
			"componentType":5123,
			"count":45720,
			"type":"SCALAR"
		},
		{
			"bufferView":20,
			"componentType":5126,
			"count":18848,
			"max":[
				3.2484030723571777,
				-6.157987117767334,
				11.201677322387695
			],
			"min":[
				-2.5142760276794434,
				-7.786576271057129,
				9.016827583312988
			],
			"type":"VEC3"
		},
		{
			"bufferView":21,
			"componentType":5126,
			"count":18848,
			"type":"VEC3"
		},
		{
			"bufferView":22,
			"componentType":5126,
			"count":18848,
			"type":"VEC2"
		},
		{
			"bufferView":23,
			"componentType":5126,
			"count":18848,
			"type":"VEC3"
		},
		{
			"bufferView":24,
			"componentType":5123,
			"count":113064,
			"type":"SCALAR"
		},
		{
			"bufferView":25,
			"componentType":5126,
			"count":7584,
			"max":[
				3.5947084426879883,
				-4.784852027893066,
				10.257320404052734
			],
			"min":[
				-2.933290719985962,
				-6.934043884277344,
				8.23033618927002
			],
			"type":"VEC3"
		},
		{
			"bufferView":26,
			"componentType":5126,
			"count":7584,
			"type":"VEC3"
		},
		{
			"bufferView":27,
			"componentType":5126,
			"count":7584,
			"type":"VEC2"
		},
		{
			"bufferView":28,
			"componentType":5126,
			"count":7584,
			"type":"VEC3"
		},
		{
			"bufferView":29,
			"componentType":5123,
			"count":43020,
			"type":"SCALAR"
		},
		{
			"bufferView":30,
			"componentType":5126,
			"count":10280,
			"max":[
				3.044745922088623,
				-4.565227031707764,
				10.21129322052002
			],
			"min":[
				-2.8828089237213135,
				-8.996075630187988,
				-0.6427741050720215
			],
			"type":"VEC3"
		},
		{
			"bufferView":31,
			"componentType":5126,
			"count":10280,
			"type":"VEC3"
		},
		{
			"bufferView":32,
			"componentType":5126,
			"count":10280,
			"type":"VEC2"
		},
		{
			"bufferView":33,
			"componentType":5126,
			"count":10280,
			"type":"VEC3"
		},
		{
			"bufferView":34,
			"componentType":5123,
			"count":60222,
			"type":"SCALAR"
		},
		{
			"bufferView":35,
			"componentType":5126,
			"count":17150,
			"max":[
				3.00846266746521,
				-4.422336578369141,
				9.25634765625
			],
			"min":[
				-2.896854877471924,
				-6.394883155822754,
				-1.6945186853408813
			],
			"type":"VEC3"
		},
		{
			"bufferView":36,
			"componentType":5126,
			"count":17150,
			"type":"VEC3"
		},
		{
			"bufferView":37,
			"componentType":5126,
			"count":17150,
			"type":"VEC2"
		},
		{
			"bufferView":38,
			"componentType":5126,
			"count":17150,
			"type":"VEC3"
		},
		{
			"bufferView":39,
			"componentType":5123,
			"count":91650,
			"type":"SCALAR"
		},
		{
			"bufferView":40,
			"componentType":5126,
			"count":500,
			"max":[
				1.8196262121200562,
				-5.8141984939575195,
				4.458714485168457
			],
			"min":[
				1.476270079612732,
				-5.916388511657715,
				3.817582130432129
			],
			"type":"VEC3"
		},
		{
			"bufferView":41,
			"componentType":5126,
			"count":500,
			"type":"VEC3"
		},
		{
			"bufferView":42,
			"componentType":5126,
			"count":500,
			"type":"VEC2"
		},
		{
			"bufferView":43,
			"componentType":5126,
			"count":500,
			"type":"VEC3"
		},
		{
			"bufferView":44,
			"componentType":5123,
			"count":1092,
			"type":"SCALAR"
		},
		{
			"bufferView":45,
			"componentType":5126,
			"count":4,
			"max":[
				0.28609830141067505,
				0,
				0.5
			],
			"min":[
				-0.28609830141067505,
				0,
				-0.5
			],
			"type":"VEC3"
		},
		{
			"bufferView":46,
			"componentType":5126,
			"count":4,
			"type":"VEC3"
		},
		{
			"bufferView":47,
			"componentType":5126,
			"count":4,
			"type":"VEC2"
		},
		{
			"bufferView":48,
			"componentType":5123,
			"count":6,
			"type":"SCALAR"
		}
	],
	"bufferViews":[
		{
			"buffer":0,
			"byteLength":10488,
			"byteOffset":0,
			"target":34962
		},
		{
			"buffer":0,
			"byteLength":10488,
			"byteOffset":10488,
			"target":34962
		},
		{
			"buffer":0,
			"byteLength":6992,
			"byteOffset":20976,
			"target":34962
		},
		{
			"buffer":0,
			"byteLength":10488,
			"byteOffset":27968,
			"target":34962
		},
		{
			"buffer":0,
			"byteLength":9216,
			"byteOffset":38456,
			"target":34963
		},
		{
			"buffer":0,
			"byteLength":17280,
			"byteOffset":47672,
			"target":34962
		},
		{
			"buffer":0,
			"byteLength":17280,
			"byteOffset":64952,
			"target":34962
		},
		{
			"buffer":0,
			"byteLength":11520,
			"byteOffset":82232,
			"target":34962
		},
		{
			"buffer":0,
			"byteLength":17280,
			"byteOffset":93752,
			"target":34962
		},
		{
			"buffer":0,
			"byteLength":16200,
			"byteOffset":111032,
			"target":34963
		},
		{
			"buffer":0,
			"byteLength":66840,
			"byteOffset":127232,
			"target":34962
		},
		{
			"buffer":0,
			"byteLength":66840,
			"byteOffset":194072,
			"target":34962
		},
		{
			"buffer":0,
			"byteLength":44560,
			"byteOffset":260912,
			"target":34962
		},
		{
			"buffer":0,
			"byteLength":66840,
			"byteOffset":305472,
			"target":34962
		},
		{
			"buffer":0,
			"byteLength":62280,
			"byteOffset":372312,
			"target":34963
		},
		{
			"buffer":0,
			"byteLength":94800,
			"byteOffset":434592,
			"target":34962
		},
		{
			"buffer":0,
			"byteLength":94800,
			"byteOffset":529392,
			"target":34962
		},
		{
			"buffer":0,
			"byteLength":63200,
			"byteOffset":624192,
			"target":34962
		},
		{
			"buffer":0,
			"byteLength":94800,
			"byteOffset":687392,
			"target":34962
		},
		{
			"buffer":0,
			"byteLength":91440,
			"byteOffset":782192,
			"target":34963
		},
		{
			"buffer":0,
			"byteLength":226176,
			"byteOffset":873632,
			"target":34962
		},
		{
			"buffer":0,
			"byteLength":226176,
			"byteOffset":1099808,
			"target":34962
		},
		{
			"buffer":0,
			"byteLength":150784,
			"byteOffset":1325984,
			"target":34962
		},
		{
			"buffer":0,
			"byteLength":226176,
			"byteOffset":1476768,
			"target":34962
		},
		{
			"buffer":0,
			"byteLength":226128,
			"byteOffset":1702944,
			"target":34963
		},
		{
			"buffer":0,
			"byteLength":91008,
			"byteOffset":1929072,
			"target":34962
		},
		{
			"buffer":0,
			"byteLength":91008,
			"byteOffset":2020080,
			"target":34962
		},
		{
			"buffer":0,
			"byteLength":60672,
			"byteOffset":2111088,
			"target":34962
		},
		{
			"buffer":0,
			"byteLength":91008,
			"byteOffset":2171760,
			"target":34962
		},
		{
			"buffer":0,
			"byteLength":86040,
			"byteOffset":2262768,
			"target":34963
		},
		{
			"buffer":0,
			"byteLength":123360,
			"byteOffset":2348808,
			"target":34962
		},
		{
			"buffer":0,
			"byteLength":123360,
			"byteOffset":2472168,
			"target":34962
		},
		{
			"buffer":0,
			"byteLength":82240,
			"byteOffset":2595528,
			"target":34962
		},
		{
			"buffer":0,
			"byteLength":123360,
			"byteOffset":2677768,
			"target":34962
		},
		{
			"buffer":0,
			"byteLength":120444,
			"byteOffset":2801128,
			"target":34963
		},
		{
			"buffer":0,
			"byteLength":205800,
			"byteOffset":2921572,
			"target":34962
		},
		{
			"buffer":0,
			"byteLength":205800,
			"byteOffset":3127372,
			"target":34962
		},
		{
			"buffer":0,
			"byteLength":137200,
			"byteOffset":3333172,
			"target":34962
		},
		{
			"buffer":0,
			"byteLength":205800,
			"byteOffset":3470372,
			"target":34962
		},
		{
			"buffer":0,
			"byteLength":183300,
			"byteOffset":3676172,
			"target":34963
		},
		{
			"buffer":0,
			"byteLength":6000,
			"byteOffset":3859472,
			"target":34962
		},
		{
			"buffer":0,
			"byteLength":6000,
			"byteOffset":3865472,
			"target":34962
		},
		{
			"buffer":0,
			"byteLength":4000,
			"byteOffset":3871472,
			"target":34962
		},
		{
			"buffer":0,
			"byteLength":6000,
			"byteOffset":3875472,
			"target":34962
		},
		{
			"buffer":0,
			"byteLength":2184,
			"byteOffset":3881472,
			"target":34963
		},
		{
			"buffer":0,
			"byteLength":48,
			"byteOffset":3883656,
			"target":34962
		},
		{
			"buffer":0,
			"byteLength":48,
			"byteOffset":3883704,
			"target":34962
		},
		{
			"buffer":0,
			"byteLength":32,
			"byteOffset":3883752,
			"target":34962
		},
		{
			"buffer":0,
			"byteLength":12,
			"byteOffset":3883784,
			"target":34963
		}
	],
	"samplers":[
		{
			"magFilter":9729,
			"minFilter":9987,
			"wrapS":33071,
			"wrapT":33071
		}
	],
	"buffers":[
		{
			"byteLength":3883796,
			"uri":"magicalDecor.bin"
		}
	]
}
